<?xml version="1.0" encoding="UTF-8"?>
<svg id="Layer_1" xmlns="http://www.w3.org/2000/svg" xmlns:xlink="http://www.w3.org/1999/xlink" version="1.1" viewBox="0 0 160 80">
  <!-- Generator: Adobe Illustrator 30.2.1, SVG Export Plug-In . SVG Version: 2.1.1 Build 1)  -->
  <defs>
    <style>
      .st0 {
        fill: #8dc63f;
      }

      .st1 {
        fill: #c49a6c;
      }

      .st2 {
        fill: url(#linear-gradient1);
      }

      .st2, .st3, .st4 {
        opacity: .4;
      }

      .st5 {
        stroke: #326ab3;
      }

      .st5, .st6, .st7, .st8, .st9, .st10, .st11, .st12, .st13, .st14, .st15, .st16, .st17 {
        fill: none;
        stroke-miterlimit: 10;
      }

      .st5, .st8, .st9, .st10, .st11, .st12, .st14, .st15, .st17 {
        stroke-width: .5px;
      }

      .st6 {
        stroke: #414042;
      }

      .st6, .st7, .st16 {
        stroke-width: 5px;
      }

      .st18 {
        fill: #231f20;
      }

      .st7, .st13 {
        stroke: #939598;
      }

      .st8 {
        stroke-dasharray: 1.51 1.51;
      }

      .st8, .st9, .st14 {
        stroke: #6d6e71;
      }

      .st19 {
        fill: #326ab3;
      }

      .st10 {
        stroke: #4c9494;
      }

      .st11 {
        stroke: #8dc63f;
      }

      .st12 {
        stroke: #6ea3d8;
      }

      .st14 {
        stroke-dasharray: 1.58 1.58;
      }

      .st3 {
        fill: url(#linear-gradient);
      }

      .st20 {
        fill: #4c9494;
      }

      .st21 {
        fill: #6ea3d8;
      }

      .st15 {
        stroke: #231f20;
      }

      .st16 {
        stroke: #006838;
      }

      .st17 {
        stroke: #c49a6c;
      }

      .st4 {
        fill: #b12625;
      }
    </style>
    <linearGradient id="linear-gradient" x1="117.53" y1="29.26" x2="148.07" y2="29.26" gradientUnits="userSpaceOnUse">
      <stop offset="0" stop-color="#b12625"/>
      <stop offset=".62" stop-color="#fff"/>
    </linearGradient>
    <linearGradient id="linear-gradient1" x1="-135.88" y1="31.03" x2="-107.74" y2="31.03" gradientTransform="translate(-95.81) rotate(-180) scale(1 -1)" xlink:href="#linear-gradient"/>
  </defs>
  <line class="st13" x1="22.22" y1="38.75" x2="136.74" y2="38.75"/>
  <polygon class="st4" points="66.85 6.16 40.07 38.47 93.63 38.47 66.85 6.16"/>
  <polygon class="st4" points="106.49 26.14 96.28 38.47 116.71 38.47 106.49 26.14"/>
  <polygon class="st3" points="132.8 20.05 117.53 38.47 148.07 38.47 132.8 20.05"/>
  <polygon class="st2" points="26 23.74 40.07 38.32 11.93 38.32 26 23.74"/>
  <g>
    <line x1="93.87" y1="42.33" x2="40.07" y2="42.33"/>
    <g>
      <line class="st15" x1="92.08" y1="42.33" x2="41.86" y2="42.33"/>
      <polygon class="st18" points="91.71 41.09 93.87 42.33 91.71 43.58 91.71 41.09"/>
      <polygon class="st18" points="42.23 41.09 40.07 42.33 42.23 43.58 42.23 41.09"/>
    </g>
  </g>
  <g>
    <line x1="37.17" y1="47.47" x2="42.96" y2="47.47"/>
    <g>
      <line class="st10" x1="37.18" y1="47.47" x2="41.17" y2="47.47"/>
      <polygon class="st20" points="40.81 48.72 42.96 47.47 40.81 46.22 40.81 48.72"/>
    </g>
  </g>
  <g>
    <line x1="92.26" y1="47.47" x2="98.05" y2="47.47"/>
    <g>
      <line class="st10" x1="92.26" y1="47.47" x2="96.26" y2="47.47"/>
      <polygon class="st20" points="95.89 48.72 98.05 47.47 95.89 46.22 95.89 48.72"/>
    </g>
  </g>
  <g>
    <line x1="100.95" y1="51.22" x2="95.16" y2="51.22"/>
    <g>
      <line class="st5" x1="100.95" y1="51.22" x2="96.95" y2="51.22"/>
      <polygon class="st19" points="97.32 49.97 95.16 51.22 97.32 52.46 97.32 49.97"/>
    </g>
  </g>
  <g>
    <line x1="45.79" y1="51.22" x2="40" y2="51.22"/>
    <g>
      <line class="st5" x1="45.79" y1="51.22" x2="41.8" y2="51.22"/>
      <polygon class="st19" points="42.16 49.97 40 51.22 42.16 52.46 42.16 49.97"/>
    </g>
  </g>
  <g>
    <line x1="95.16" y1="44.75" x2="100.95" y2="44.75"/>
    <g>
      <line class="st12" x1="95.16" y1="44.75" x2="99.15" y2="44.75"/>
      <polygon class="st21" points="98.79 45.99 100.95 44.75 98.79 43.5 98.79 45.99"/>
    </g>
  </g>
  <g>
    <line x1="112.61" y1="44.75" x2="118.4" y2="44.75"/>
    <g>
      <line class="st12" x1="112.61" y1="44.75" x2="116.6" y2="44.75"/>
      <polygon class="st21" points="116.24 45.99 118.4 44.75 116.24 43.5 116.24 45.99"/>
    </g>
  </g>
  <g>
    <line x1="121.29" y1="49.15" x2="115.5" y2="49.15"/>
    <g>
      <line class="st11" x1="121.29" y1="49.15" x2="117.29" y2="49.15"/>
      <polygon class="st0" points="117.66 47.9 115.5 49.15 117.66 50.39 117.66 47.9"/>
    </g>
  </g>
  <g>
    <line x1="119.03" y1="44.75" x2="124.82" y2="44.75"/>
    <g>
      <line class="st17" x1="119.03" y1="44.75" x2="123.03" y2="44.75"/>
      <polygon class="st1" points="122.67 45.99 124.82 44.75 122.67 43.5 122.67 45.99"/>
    </g>
  </g>
  <line class="st7" x1="22.22" y1="68.03" x2="131.29" y2="68.03"/>
  <line class="st6" x1="29.65" y1="68.03" x2="45.76" y2="68.03"/>
  <line class="st6" x1="103.42" y1="68.03" x2="119.52" y2="68.03"/>
  <line class="st16" x1="58.62" y1="68.03" x2="65.92" y2="68.03"/>
  <g>
    <line x1="47.81" y1="71.46" x2="43.7" y2="71.46"/>
    <g>
      <line class="st11" x1="47.81" y1="71.46" x2="45.5" y2="71.46"/>
      <polygon class="st0" points="45.86 70.22 43.7 71.46 45.86 72.71 45.86 70.22"/>
    </g>
  </g>
  <g>
    <line x1="31.47" y1="71.46" x2="27.36" y2="71.46"/>
    <g>
      <line class="st11" x1="31.47" y1="71.46" x2="29.16" y2="71.46"/>
      <polygon class="st0" points="29.52 70.22 27.36 71.46 29.52 72.71 29.52 70.22"/>
    </g>
  </g>
  <g>
    <line x1="28.28" y1="73.84" x2="32.38" y2="73.84"/>
    <g>
      <line class="st12" x1="28.28" y1="73.84" x2="30.59" y2="73.84"/>
      <polygon class="st21" points="30.22 75.09 32.38 73.84 30.22 72.59 30.22 75.09"/>
    </g>
  </g>
  <g>
    <line x1="40.65" y1="73.84" x2="44.75" y2="73.84"/>
    <g>
      <line class="st12" x1="40.65" y1="73.84" x2="42.96" y2="73.84"/>
      <polygon class="st21" points="42.59 75.09 44.75 73.84 42.59 72.59 42.59 75.09"/>
    </g>
  </g>
  <g>
    <line x1="67.3" y1="71.73" x2="63.2" y2="71.73"/>
    <g>
      <line class="st11" x1="67.3" y1="71.73" x2="64.99" y2="71.73"/>
      <polygon class="st0" points="65.36 70.48 63.2 71.73 65.36 72.97 65.36 70.48"/>
    </g>
  </g>
  <g>
    <line x1="60.99" y1="71.73" x2="56.88" y2="71.73"/>
    <g>
      <line class="st11" x1="60.99" y1="71.73" x2="58.68" y2="71.73"/>
      <polygon class="st0" points="59.04 70.48 56.88 71.73 59.04 72.97 59.04 70.48"/>
    </g>
  </g>
  <g>
    <line x1="57.79" y1="73.84" x2="61.9" y2="73.84"/>
    <g>
      <line class="st12" x1="57.79" y1="73.84" x2="60.11" y2="73.84"/>
      <polygon class="st21" points="59.74 75.09 61.9 73.84 59.74 72.59 59.74 75.09"/>
    </g>
  </g>
  <g>
    <line x1="64.24" y1="73.84" x2="68.35" y2="73.84"/>
    <g>
      <line class="st12" x1="64.24" y1="73.84" x2="66.56" y2="73.84"/>
      <polygon class="st21" points="66.19 75.09 68.35 73.84 66.19 72.59 66.19 75.09"/>
    </g>
  </g>
  <g>
    <line x1="121.07" y1="71.73" x2="116.96" y2="71.73"/>
    <g>
      <line class="st11" x1="121.07" y1="71.73" x2="118.76" y2="71.73"/>
      <polygon class="st0" points="119.12 70.48 116.96 71.73 119.12 72.97 119.12 70.48"/>
    </g>
  </g>
  <g>
    <line x1="104.73" y1="71.73" x2="100.62" y2="71.73"/>
    <g>
      <line class="st11" x1="104.73" y1="71.73" x2="102.42" y2="71.73"/>
      <polygon class="st0" points="102.78 70.48 100.62 71.73 102.78 72.97 102.78 70.48"/>
    </g>
  </g>
  <g>
    <line x1="101.53" y1="73.84" x2="105.64" y2="73.84"/>
    <g>
      <line class="st12" x1="101.53" y1="73.84" x2="103.84" y2="73.84"/>
      <polygon class="st21" points="103.48 75.09 105.64 73.84 103.48 72.59 103.48 75.09"/>
    </g>
  </g>
  <g>
    <line x1="113.9" y1="73.84" x2="118.01" y2="73.84"/>
    <g>
      <line class="st12" x1="113.9" y1="73.84" x2="116.21" y2="73.84"/>
      <polygon class="st21" points="115.85 75.09 118.01 73.84 115.85 72.59 115.85 75.09"/>
    </g>
  </g>
  <g>
    <line class="st9" x1="40.07" y1="42.33" x2="39.54" y2="42.86"/>
    <line class="st14" x1="38.42" y1="43.98" x2="23.31" y2="59"/>
    <line class="st9" x1="22.75" y1="59.56" x2="22.22" y2="60.09"/>
  </g>
  <g>
    <line class="st9" x1="93.58" y1="42.36" x2="94.25" y2="42.7"/>
    <line class="st8" x1="95.59" y1="43.38" x2="127.13" y2="59.43"/>
    <line class="st9" x1="127.8" y1="59.77" x2="128.47" y2="60.11"/>
  </g>
</svg>