<?xml version="1.0" encoding="UTF-8"?>
<svg id="Layer_1" xmlns="http://www.w3.org/2000/svg" xmlns:xlink="http://www.w3.org/1999/xlink" version="1.1" viewBox="0 0 160 80">
  <!-- Generator: Adobe Illustrator 30.2.1, SVG Export Plug-In . SVG Version: 2.1.1 Build 1)  -->
  <defs>
    <style>
      .st0, .st1, .st2, .st3, .st4, .st5, .st6, .st7, .st8, .st9 {
        stroke-miterlimit: 10;
      }

      .st0, .st1, .st2, .st3, .st4, .st9 {
        fill: none;
        stroke: #231f20;
      }

      .st1 {
        stroke-dasharray: 1.46 1.46;
      }

      .st1, .st2, .st3, .st4, .st9 {
        stroke-width: .5px;
      }

      .st2 {
        stroke-dasharray: 1.48 1.48;
      }

      .st10 {
        fill: #bcbec0;
      }

      .st11 {
        fill: #231f20;
      }

      .st3 {
        stroke-dasharray: 1.49 1.49;
      }

      .st4 {
        stroke-dasharray: 1.51 1.51;
      }

      .st5 {
        fill: url(#radial-gradient);
      }

      .st5, .st6, .st7, .st8 {
        stroke: #808285;
        stroke-width: .25px;
      }

      .st6 {
        fill: url(#radial-gradient1);
      }

      .st7 {
        fill: url(#radial-gradient3);
      }

      .st8 {
        fill: url(#radial-gradient2);
      }

      .st12 {
        fill: #808285;
      }

      .st13 {
        fill: #022641;
      }

      .st14 {
        fill: #e6e7e8;
      }
    </style>
    <radialGradient id="radial-gradient" cx="-25.63" cy="-285.31" fx="-25.63" fy="-285.31" r="4.65" gradientTransform="translate(56.22 304.92) rotate(.32)" gradientUnits="userSpaceOnUse">
      <stop offset="0" stop-color="#e6e7e8"/>
      <stop offset="1" stop-color="#c2b59b"/>
    </radialGradient>
    <radialGradient id="radial-gradient1" cx="69.35" cy="-286.15" fx="69.35" fy="-286.15" xlink:href="#radial-gradient"/>
    <radialGradient id="radial-gradient2" cx="-213.41" cy="-187.98" fx="-213.41" fy="-187.98" r="4.65" gradientTransform="translate(-163.16 -157.52) rotate(-179.68)" xlink:href="#radial-gradient"/>
    <radialGradient id="radial-gradient3" cx="-233.65" cy="-188.49" fx="-233.65" fy="-188.49" r="4.65" gradientTransform="translate(-163.16 -157.52) rotate(-179.68)" xlink:href="#radial-gradient"/>
  </defs>
  <rect class="st10" x="26" y="22.99" width="107.3" height="5.39"/>
  <rect class="st12" x="87.32" y="22.99" width="2.87" height="5.39"/>
  <rect class="st12" x="96.89" y="22.99" width="2.87" height="5.39"/>
  <rect class="st12" x="127.47" y="22.99" width="1.43" height="5.39"/>
  <rect class="st12" x="107.48" y="22.99" width="1.55" height="5.39"/>
  <rect class="st12" x="60.53" y="22.99" width="1.75" height="5.39"/>
  <rect class="st12" x="45.07" y="22.99" width="2.87" height="5.39"/>
  <rect class="st12" x="35.84" y="22.99" width="2.87" height="5.39"/>
  <rect class="st12" x="30.73" y="22.99" width="2.87" height="5.39"/>
  <rect class="st12" x="68.02" y="22.99" width="2.87" height="5.39"/>
  <g>
    <path class="st9" d="M128.86,22.97c-.23-.07-.47-.13-.72-.2"/>
    <path class="st2" d="M126.71,22.4c-7.53-1.9-20.6-4.09-43.41-4.09s-36.65,2.32-44.12,4.28"/>
    <path class="st9" d="M38.45,22.77c-.25.07-.49.13-.72.2"/>
  </g>
  <g>
    <path class="st9" d="M88.59,22.61c-.15-.2-.3-.4-.45-.6"/>
    <path class="st3" d="M87.2,20.85c-4.69-5.62-12.81-12.08-26.95-12.08s-22.77,6.85-27.42,12.65"/>
    <path class="st9" d="M32.37,22.01c-.15.2-.31.4-.45.6"/>
  </g>
  <g>
    <path class="st9" d="M88.74,23.33c-.11-.22-.23-.44-.34-.67"/>
    <path class="st1" d="M87.69,21.39c-3.53-6.21-9.65-13.34-20.3-13.34s-17.15,7.57-20.66,13.98"/>
    <path class="st9" d="M46.4,22.67c-.12.22-.23.44-.34.66"/>
  </g>
  <g>
    <path class="st9" d="M98.32,22.99c-.07-.24-.14-.48-.21-.72"/>
    <path class="st4" d="M97.66,20.83c-2.35-7.19-6.43-15.51-13.55-15.51s-11.45,8.8-13.78,16.23"/>
    <path class="st9" d="M70.11,22.27c-.07.24-.14.48-.21.72"/>
  </g>
  <path class="st5" d="M37.75,20.59c-.1,1.73-1.06,2.2-1.36,2.3-1,.35-2.15-.69-3.64-.62-.99.05-2.01.61-3.46.57-.55-.01-1.14-.21-1.43-.8-.31-.63-1.15-.69-1.27-1.45-.13-.83.3-2.09.78-2.45.44-.33.71-.11,1.33-.63.29-.24.18-.56.54-.93.22-.22.57-.45,1.17-.47.8-.02,2.59-.32,3.81.2,1.13.48,1.23,1.85,1.34,1.83,1.43-.37,2.25,1.18,2.18,2.45"/>
  <rect class="st10" x="26" y="46.7" width="107.3" height="4.35"/>
  <rect class="st12" x="87.32" y="46.7" width="2.87" height="4.35"/>
  <rect class="st12" x="96.89" y="46.7" width="2.87" height="4.35"/>
  <rect class="st12" x="127.47" y="46.7" width="1.43" height="4.35"/>
  <rect class="st12" x="107.48" y="46.7" width="1.55" height="4.35"/>
  <rect class="st12" x="60.53" y="46.7" width="1.75" height="4.35"/>
  <rect class="st12" x="45.07" y="46.7" width="2.87" height="4.35"/>
  <rect class="st12" x="35.84" y="46.7" width="2.87" height="4.35"/>
  <rect class="st12" x="30.73" y="46.7" width="2.87" height="4.35"/>
  <rect class="st12" x="68.02" y="46.7" width="2.87" height="4.35"/>
  <rect class="st10" x="26" y="53.3" width="107.3" height="4.35"/>
  <rect class="st12" x="87.32" y="53.3" width="2.87" height="4.35"/>
  <rect class="st12" x="96.89" y="53.3" width="2.87" height="4.35"/>
  <rect class="st12" x="127.47" y="53.3" width="1.43" height="4.35"/>
  <rect class="st12" x="107.48" y="53.3" width="1.55" height="4.35"/>
  <rect class="st12" x="60.53" y="53.3" width="1.75" height="4.35"/>
  <rect class="st12" x="45.07" y="53.3" width="2.87" height="4.35"/>
  <rect class="st12" x="35.84" y="53.3" width="2.87" height="4.35"/>
  <rect class="st12" x="30.73" y="53.3" width="2.87" height="4.35"/>
  <rect class="st12" x="68.02" y="53.3" width="2.87" height="4.35"/>
  <rect class="st10" x="26" y="59.95" width="107.3" height="4.35"/>
  <rect class="st12" x="87.32" y="59.95" width="2.87" height="4.35"/>
  <rect class="st12" x="96.89" y="59.95" width="2.87" height="4.35"/>
  <rect class="st12" x="127.47" y="59.95" width="1.43" height="4.35"/>
  <rect class="st12" x="107.48" y="59.95" width="1.55" height="4.35"/>
  <rect class="st12" x="60.53" y="59.95" width="1.75" height="4.35"/>
  <rect class="st12" x="45.07" y="59.95" width="2.87" height="4.35"/>
  <rect class="st12" x="35.84" y="59.95" width="2.87" height="4.35"/>
  <rect class="st12" x="30.73" y="59.95" width="2.87" height="4.35"/>
  <rect class="st12" x="68.02" y="59.95" width="2.87" height="4.35"/>
  <rect class="st10" x="26" y="66.64" width="107.3" height="4.35"/>
  <rect class="st12" x="87.32" y="66.64" width="2.87" height="4.35"/>
  <rect class="st12" x="96.89" y="66.64" width="2.87" height="4.35"/>
  <rect class="st12" x="127.47" y="66.64" width="1.43" height="4.35"/>
  <rect class="st12" x="107.48" y="66.64" width="1.55" height="4.35"/>
  <rect class="st12" x="60.53" y="66.64" width="1.75" height="4.35"/>
  <rect class="st12" x="45.07" y="66.64" width="2.87" height="4.35"/>
  <rect class="st12" x="35.84" y="66.64" width="2.87" height="4.35"/>
  <rect class="st12" x="30.73" y="66.64" width="2.87" height="4.35"/>
  <rect class="st12" x="68.02" y="66.64" width="2.87" height="4.35"/>
  <rect class="st14" x="37.28" y="53.3" width="90.91" height="4.35"/>
  <rect class="st14" x="45.87" y="46.7" width="53.19" height="4.35"/>
  <rect class="st14" x="68.97" y="59.95" width="29.36" height="4.35"/>
  <rect class="st14" x="32.17" y="66.64" width="56.59" height="4.35"/>
  <path class="st13" d="M47.77,49.41l-1.9-.71,1.9-.71v1.41ZM97.16,48l1.9.71-1.9.71v-1.41ZM97.48,48.88h-50.02v-.35h50.02v.35Z"/>
  <g>
    <line class="st0" x1="79.64" y1="34.19" x2="79.64" y2="39.56"/>
    <polygon class="st11" points="77.15 38.83 79.64 43.14 82.13 38.83 77.15 38.83"/>
  </g>
  <path class="st6" d="M132.74,20.27c-.1,1.73-1.06,2.2-1.36,2.3-1,.35-2.15-.69-3.64-.62-.99.05-2.01.61-3.46.57-.55-.01-1.14-.21-1.43-.8-.31-.63-1.15-.69-1.27-1.45-.13-.83.3-2.09.78-2.45.44-.33.71-.11,1.33-.63.29-.24.18-.56.54-.93.22-.22.57-.45,1.17-.47.8-.02,2.59-.32,3.81.2,1.13.48,1.23,1.85,1.34,1.83,1.43-.37,2.25,1.18,2.18,2.45"/>
  <path class="st8" d="M43.63,30.53c.1-1.73,1.06-2.2,1.36-2.3,1-.35,2.15.69,3.64.62.99-.05,2.01-.61,3.46-.57.55.01,1.14.21,1.43.8.31.63,1.15.69,1.27,1.45.13.83-.3,2.09-.78,2.45-.44.33-.71.11-1.33.63-.29.24-.18.56-.54.93-.22.22-.57.45-1.17.47-.8.02-2.59.32-3.81-.2-1.13-.48-1.23-1.85-1.34-1.83-1.43.37-2.25-1.18-2.18-2.45"/>
  <path class="st7" d="M63.86,31.15c.1-1.73,1.06-2.2,1.36-2.3,1-.35,2.15.69,3.64.62.99-.05,2.01-.61,3.46-.57.55.01,1.14.21,1.43.8.31.63,1.15.69,1.27,1.45.13.83-.3,2.09-.78,2.45-.44.33-.71.11-1.33.63-.29.24-.18.56-.54.93-.22.22-.57.45-1.17.47-.8.02-2.59.32-3.81-.2-1.13-.48-1.23-1.85-1.34-1.83-1.43.37-2.25-1.18-2.18-2.45"/>
</svg>